<svg xmlns="http://www.w3.org/2000/svg" viewBox="0 0 600 128"><title>Bayesian Statistics Laboratory</title><defs><linearGradient id="b" x1="0" y1="0" x2="1" y2="1"><stop stop-color="#304889"/><stop offset="1" stop-color="#5366b4"/></linearGradient><linearGradient id="s" x1="0" y1="0" x2="1" y2="1"><stop stop-color="#8795db"/><stop offset="1" stop-color="#6172bd"/></linearGradient></defs><path d="M10 28h31c31 0 49 18 49 45s-17 45-49 45H10z" fill="#8997d0" opacity=".25"/><path d="M16 22h31c31 0 49 18 49 45s-17 45-49 45H16z" fill="#667cbb" opacity=".35"/><path fill="url(#b)" fill-rule="evenodd" d="M23 15h30c20 0 32 11 32 26 0 10-5 17-12 21 11 5 17 13 17 24 0 19-14 29-36 29H23V15zm16 15v26h13c11 0 17-5 17-13s-6-13-17-13H39zm0 40v30h15c13 0 20-5 20-15s-7-15-20-15H39z"/><path d="M108 32c-9-11-28-12-36-2-10 12-3 23 12 30l10 5c15 8 21 20 13 33-9 15-31 16-43 3" fill="none" stroke="url(#s)" stroke-width="15" stroke-linecap="round" stroke-linejoin="round"/><g fill="#26376f" font-family="Pretendard Variable,Pretendard,sans-serif"><text x="152" y="60" font-size="28" font-weight="700" letter-spacing="1">BAYESIAN STATISTICS</text><text x="154" y="88" font-size="16" font-weight="500" letter-spacing="5">LABORATORY</text></g></svg>